<svg width="360" height="230" viewBox="0 0 360 230" fill="none" xmlns="http://www.w3.org/2000/svg">
  <path d="M45 203L160 106c36-31 89-30 124 3l39 37v57H45Z" fill="#D4A26E" opacity=".58"/>
  <path d="M76 184c30-54 74-84 133-88" stroke="#DCE9D6" stroke-width="34" stroke-linecap="round" opacity=".72"/>
  <path d="M102 88c8-8 24-8 32 0s8 20 0 27c-8 8-24 8-32 0-8-7-8-19 0-27ZM102 118c8-8 24-8 32 0s8 20 0 27c-8 8-24 8-32 0-8-7-8-19 0-27ZM102 148c8-8 24-8 32 0s8 20 0 27c-8 8-24 8-32 0-8-7-8-19 0-27Z" stroke="#0E6B55" stroke-width="6" stroke-linecap="round" stroke-linejoin="round"/>
  <path d="M190 72c31 5 50 31 45 62-4 30-28 50-59 49" stroke="#365C43" stroke-width="10" stroke-linecap="round"/>
  <path d="M187 96c17 7 28 21 31 40M184 122c11 6 18 16 21 29" stroke="#A8D0BF" stroke-width="7" stroke-linecap="round"/>
  <path d="M250 55c18 21 18 52 0 73M270 42c30 32 30 80 0 112" stroke="#5F8D5B" stroke-width="5" stroke-linecap="round"/>
</svg>
