<svg xmlns="http://www.w3.org/2000/svg" viewBox="0 0 1200 800" role="img" aria-label="Espacio terapéutico privado y profesional">
  <defs><linearGradient id="wall" x1="0" x2="1" y1="0" y2="1"><stop stop-color="#f9f4ec"/><stop offset="1" stop-color="#e5ddce"/></linearGradient><linearGradient id="olive" x1="0" x2="1"><stop stop-color="#777f2d"/><stop offset="1" stop-color="#30320f"/></linearGradient><filter id="s" x="-20%" y="-20%" width="140%" height="140%"><feDropShadow dx="0" dy="28" stdDeviation="24" flood-color="#1f210e" flood-opacity=".22"/></filter></defs>
  <rect width="1200" height="800" fill="url(#wall)"/><circle cx="1010" cy="120" r="230" fill="#d1d0be" opacity=".46"/><path d="M775 143c111 18 190 101 178 185-12 85-114 171-225 163-111-9-230-113-215-205 15-91 151-161 262-143z" fill="#6d7628" opacity=".18"/>
  <rect x="120" y="366" width="790" height="160" rx="76" fill="#fdfaf5" filter="url(#s)"/><rect x="166" y="300" width="470" height="96" rx="48" fill="#ffffff" opacity=".78"/><rect x="178" y="316" width="446" height="64" rx="32" fill="#eee7d9"/><rect x="690" y="316" width="270" height="210" rx="38" fill="#d8d0bf"/>
  <circle cx="750" cy="262" r="44" fill="#332f19"/><path d="M715 342c46-36 112-36 159 0 38 30 56 78 46 126H668c-9-48 9-96 47-126z" fill="#8c6f4f"/><path d="M182 536h710c38 0 70 31 70 70v2H112v-2c0-39 31-70 70-70z" fill="url(#olive)"/>
  <circle cx="1014" cy="530" r="72" fill="#30320f" opacity=".92"/><circle cx="1046" cy="504" r="34" fill="#6f782b"/><path d="M1009 550c35 18 76 9 102-20" fill="none" stroke="#f5f0e8" stroke-width="12" stroke-linecap="round"/><path d="M206 624c137 61 312 81 522 32" fill="none" stroke="#f5f0e8" stroke-width="6" opacity=".42"/>
</svg>


